<svg width="50" height="67" viewBox="0 0 50 67" fill="none" xmlns="http://www.w3.org/2000/svg">
<path d="M43.6505 15.3408H6.29493C5.41243 15.3408 4.56663 15.7271 3.95209 16.3627C3.33756 16.9997 3.00601 17.8719 3.03275 18.7576L4.3048 60.921C4.35801 62.6915 5.80183 64.1155 7.56616 64.1155H10.3135V61.2362C10.3135 57.9309 12.9562 55.2001 16.2471 55.2001H33.6975C36.9899 55.2001 39.6863 57.9309 39.6863 61.2362V64.1155H42.3783C44.1429 64.1155 45.5874 62.6978 45.641 60.9271L46.9118 18.7622C46.9384 17.8767 46.607 16.9996 45.9925 16.3624C45.378 15.7271 44.5338 15.3408 43.6505 15.3408Z" fill="white"/>
<path d="M33.8274 59.6572H16.3772C15.5363 59.6572 14.7515 60.2578 14.7515 61.2353V65.479C14.7515 66.3933 15.4803 66.9996 16.3772 66.9996H33.8274C34.6901 66.9996 35.3782 66.3455 35.3782 65.479V61.2353C35.3782 60.3706 34.6901 59.6572 33.8274 59.6572Z" fill="white"/>
<path d="M50 3.7144C50 1.6633 48.3445 0 46.3017 0H3.69825C1.65545 0 0 1.6633 0 3.7144V7.955C0 10.0068 1.65545 11.6694 3.69825 11.6694H46.3016C48.3446 11.6694 49.9999 10.0068 49.9999 7.955L50 3.7144Z" fill="white"/>
</svg>
