<svg width="3284" height="2256" viewBox="0 0 3284 2256" fill="none" xmlns="http://www.w3.org/2000/svg">
<path d="M7.62939e-06 1225.28V1225.28C3.41579e-06 1794.53 461.468 2256 1030.72 2256H1578H2253.28C2822.53 2256 3284 1794.53 3284 1225.28V1225.28V1225.28C3284 548.578 2735.42 0 2058.72 0H1610H1225.28C548.577 0 3.4158e-06 548.578 7.62939e-06 1225.28V1225.28ZM1388.4 127.128C1457.87 140.698 1540.93 181.974 1633.47 249.372C1817.07 382.81 2027.2 607.054 2214.4 869.295C2221.2 878.681 2226.67 886.71 2226.67 887.162C2226.67 887.501 2222.13 887.728 2216.4 887.501V887.501C2210.01 887.287 2204.08 884.124 2200.34 878.936L2198.93 876.985C2105.33 747.617 2018.27 639.962 1926.13 539.996C1762.93 362.794 1612.4 239.986 1503.87 195.092C1473.33 182.539 1452.4 177.563 1429.33 177.563C1413.33 177.563 1405.07 179.147 1393.73 184.235C1370.53 194.752 1356.8 215.673 1349.07 252.198C1346.4 265.316 1346.8 322.876 1349.73 343.796C1367.73 469.658 1431.47 643.015 1535.33 848.714C1545.33 868.616 1553.87 885.579 1554.27 886.371C1554.8 887.501 1537.87 887.728 1470 887.501L1396.36 887.208C1389.34 887.18 1382.93 883.235 1379.73 876.985V876.985C1372.27 862.284 1342.93 799.862 1333.33 778.037C1279.2 655.228 1243.2 549.495 1223.33 454.844C1220 438.786 1216.8 423.746 1216.27 421.258C1215.47 417.413 1214 415.943 1205.33 410.176C1174 389.482 1128.27 367.431 1103.33 361.098C1093.07 358.61 1088.8 358.158 1074 358.045C1057.07 357.932 1056.4 358.045 1047.6 361.55C1028.4 369.24 1016.93 384.167 1010 410.515C1006.53 423.633 1005.73 464.909 1008.53 487.978C1019.87 579.801 1068.8 717.763 1145.47 873.253C1149.07 880.603 1152 886.823 1152 887.162C1152 887.501 1121.47 887.728 1084.13 887.728H1032.26C1022.5 887.728 1013.62 882.087 1009.47 873.253V873.253C947.867 740.041 909.467 621.19 896.4 522.468C893.067 497.024 893.067 435.507 896.4 417.301C903.2 380.096 917.067 352.617 937.467 335.654C988.4 293.361 1081.73 312.133 1198.27 388.125C1205.73 392.987 1212.13 396.945 1212.27 396.945C1212.53 396.945 1212 391.517 1211.2 384.732C1206 345.832 1205.33 282.052 1209.87 255.478C1222.13 183.444 1253.87 141.377 1306.27 127.807C1321.47 123.962 1327.33 123.397 1350.67 123.736C1368.8 124.075 1375.47 124.64 1388.4 127.128ZM2888.67 959.083C2945.2 964.059 2990.53 981.361 3002.8 1002.73C3008.4 1012.57 3007.87 1018.23 2996.27 1063.01V1063.01C2990.23 1086.61 2968.92 1103.08 2944.56 1102.97L2910 1102.81C2868.13 1102.59 2833.87 1102.25 2833.6 1102.02C2833.33 1101.79 2835.2 1098.18 2837.73 1093.88C2851.47 1070.81 2860 1050 2860 1039.49C2860 1034.06 2859.47 1033.04 2855.73 1029.99C2838 1015.96 2818.93 1019.92 2803.33 1040.96C2802 1042.77 2788.13 1071.26 2772.53 1104.28C2757.07 1137.19 2741.87 1168.85 2738.93 1174.51C2725.6 1199.84 2726 1216.46 2739.87 1223.36C2745.07 1225.96 2747.47 1226.41 2756 1226.41C2768.4 1226.41 2776.4 1223.25 2784.67 1215.22C2791.2 1209 2792.93 1206.06 2808.13 1176.66C2814.13 1164.78 2819.6 1154.72 2820.13 1154.15C2821.07 1153.36 2964 1156.53 2965.07 1157.43C2965.87 1158.11 2948.53 1184.57 2940.4 1195.09C2903.07 1243.49 2862.8 1265.99 2799.87 1273.79C2765.6 1278.09 2680.67 1278.88 2659.33 1275.15C2630.53 1270.18 2610 1257.85 2599.47 1239.08C2587.73 1218.5 2586.53 1193.73 2595.47 1157.88C2607.6 1108.81 2648.53 1033.04 2676.27 1008.05C2718.4 970.279 2800.4 951.394 2888.67 959.083ZM1358.93 961.797C1417.07 967.565 1460.53 984.188 1473.33 1005.33C1478.93 1014.49 1478.53 1018.57 1469.33 1048.65V1048.65C1464.35 1065.01 1449.19 1076.14 1432.09 1075.99L1394.13 1075.67C1357.33 1075.45 1327.07 1074.99 1326.8 1074.77C1326.53 1074.54 1328.4 1070.7 1331.07 1066.17C1337.33 1055.32 1341.33 1044.8 1341.33 1039.6C1341.33 1036.09 1340.27 1034.62 1334.67 1029.99C1326.8 1023.65 1320.67 1021.17 1312.13 1021.17C1286.13 1021.17 1255.33 1057.92 1231.6 1117.29C1213.33 1163.2 1207.73 1205.27 1218.93 1213.07C1222.67 1215.67 1235.07 1216.12 1243.47 1213.86C1252.8 1211.49 1263.6 1203 1270.27 1193.05C1274.27 1187.17 1288.27 1158.9 1287.47 1158.34C1287.33 1158.22 1281.33 1157.32 1274.13 1156.41C1266.93 1155.51 1260.8 1154.49 1260.53 1154.27C1260.27 1154.04 1262.4 1147.03 1265.47 1138.66C1268.4 1130.29 1272.67 1118.53 1274.8 1112.54V1112.54C1277.12 1106.04 1283.29 1101.71 1290.19 1101.75L1368.4 1102.25C1417.6 1102.59 1458.13 1102.93 1458.27 1103.04C1458.4 1103.15 1456.27 1109.03 1453.47 1116.16C1447.87 1130.4 1426.53 1192.37 1412.27 1236.02V1236.02C1406.85 1252.58 1391.46 1263.81 1374.05 1263.94L1354.93 1264.07C1328.4 1264.18 1306.67 1264.07 1306.67 1263.73C1306.67 1262.03 1309.47 1240.66 1310.13 1237.27V1237.27C1310.38 1235.82 1308.78 1234.78 1307.56 1235.59L1305.73 1236.82C1287.87 1248.92 1258 1257.74 1223.07 1261.36C1176.13 1266.33 1136 1263.96 1111.73 1254.91C1077.33 1241.91 1061.33 1214.31 1065.47 1174.51C1068.67 1143.75 1082.4 1107.67 1107.07 1065.61C1132 1023.09 1143.2 1009.63 1165.07 995.609C1192.13 978.307 1234 965.642 1278 961.458C1295.6 959.762 1340.4 959.988 1358.93 961.797ZM526.267 974.01C561.6 974.802 590.8 975.707 591.2 976.046C591.6 976.385 587.2 992.443 581.467 1011.67C558.267 1089.13 515.467 1231.84 510.8 1246.77V1246.77C507.947 1256.18 499.29 1262.63 489.457 1262.67L427.733 1262.94L353.373 1263.15C351.491 1263.16 350.135 1261.35 350.667 1259.55V1259.55C351.333 1257.51 370.533 1194.75 393.333 1120.11C416.133 1045.48 435.733 981.7 436.8 978.421V978.421C437.993 974.911 441.304 972.565 445.011 972.601L450.4 972.653C456.8 972.653 490.933 973.332 526.267 974.01ZM834.533 983.509C836 988.372 847.067 1022.75 858.933 1059.95C873.467 1105.41 880.933 1126.9 881.6 1125.54C883.733 1121.36 911.067 1036.77 918.8 1010.42C923.2 995.496 926.933 981.361 927.067 978.986V978.986C927.141 976.654 929.053 974.802 931.386 974.802H987.6C1020.8 974.802 1048 975.028 1048 975.254C1048 975.48 1040.53 1000.47 1031.33 1030.89C1022 1061.31 1002.53 1125.88 987.867 1174.39C973.2 1222.91 960.667 1262.94 960.133 1263.5C959.6 1263.96 926 1264.18 885.333 1264.07L882.59 1264.06C840.449 1263.86 803.418 1236.07 791.467 1195.65V1195.65C780.4 1158.11 771.067 1127.46 770.667 1127.46C770.267 1127.46 767.467 1135.95 764.267 1146.35C745.733 1209 730.533 1259.55 729.333 1261.69V1261.69C728.515 1263.29 726.871 1264.3 725.077 1264.3H646.667V1264.3C592.706 1264.3 573.235 1237.17 589.32 1185.67C595.583 1165.61 602.715 1142.83 610.267 1118.76L629.002 1058.91C644.669 1008.87 691.028 974.802 743.467 974.802V974.802H822.587C828.037 974.802 832.865 978.32 834.533 983.509V983.509ZM2241.33 975.594C2241.33 976.159 2236.8 989.05 2231.2 1004.43V1004.43C2225.03 1021.29 2209.03 1032.55 2191.07 1032.66L2183.6 1032.7V1032.7C2161.46 1032.9 2142 1047.44 2135.54 1068.62L2111.2 1148.39C2091.87 1211.82 2076 1263.84 2076 1263.96C2076 1264.63 1910.67 1264.18 1910.67 1263.62C1910.67 1263.16 1921.2 1229.24 1934 1188.08C1946.8 1147.03 1962.93 1095.24 1969.87 1073.18V1073.18C1976.04 1053.19 1961.18 1032.9 1940.25 1032.76L1931.07 1032.7C1890.4 1032.47 1879.87 1032.14 1880.4 1031C1880.67 1030.21 1885.33 1017.66 1890.67 1003.07C1896 988.485 1900.53 976.159 1900.93 975.594C1901.2 975.141 1978 974.802 2071.47 974.802C2164.93 974.802 2241.33 975.141 2241.33 975.594ZM2592.8 976.724C2591.33 980.682 2574.67 1029.53 2574.67 1029.87C2574.67 1030.1 2543.2 1030.21 2504.67 1030.21H2437.49C2435.75 1030.21 2434.15 1031.17 2433.33 1032.7V1032.7C2432.27 1034.85 2416 1087.32 2416 1088.56C2416 1088.79 2437.07 1089.02 2462.67 1089.02C2488.4 1089.02 2509.33 1089.36 2509.33 1089.81C2509.33 1090.37 2505.2 1102.36 2500.27 1116.72V1116.72C2494.91 1132.3 2480.31 1142.81 2463.83 1142.93L2445.6 1143.07C2405.47 1143.3 2399.87 1143.52 2399.07 1145.11C2398.67 1146.12 2394.53 1160.03 2390 1176.2V1176.2C2385.91 1190.93 2396.98 1205.49 2412.26 1205.49H2447.73H2510.41C2511.99 1205.49 2513.13 1207.03 2512.67 1208.55V1208.55C2512.27 1210.35 2507.87 1223.36 2502.93 1237.72V1237.72C2497.59 1253.29 2482.96 1263.75 2466.5 1263.79L2338.13 1264.07C2213.73 1264.3 2182.53 1264.07 2182.93 1262.94C2183.33 1262.15 2205.73 1197.01 2232.8 1118.19V1118.19C2262.23 1032.41 2342.91 974.802 2433.6 974.802H2437.73C2585.47 974.802 2593.47 974.915 2592.8 976.724ZM1880.67 978.986C1876.8 992.33 1863.47 1028.63 1862.27 1029.31C1861.33 1029.87 1829.87 1030.21 1792.13 1030.1C1737.07 1030.1 1723.33 1030.44 1722.53 1031.57C1722 1032.36 1718 1045.14 1713.47 1059.84C1708.93 1074.54 1704.93 1087.43 1704.53 1088.34C1703.87 1089.92 1708.8 1090.15 1750.53 1090.15C1783.07 1090.15 1797.33 1090.49 1797.33 1091.39C1797.33 1093.77 1780.93 1140.47 1779.6 1141.94C1778.53 1143.07 1768.53 1143.3 1733.2 1143.07C1708.27 1142.84 1688 1142.84 1688 1143.07C1688 1143.3 1684.13 1157.32 1679.33 1174.39C1674.53 1191.36 1670.67 1205.49 1670.67 1205.94C1670.67 1206.28 1700.27 1206.74 1736.4 1206.85L1772.95 1207.04C1787.33 1207.11 1797.38 1221.3 1792.67 1234.89V1234.89V1234.89C1787 1251.47 1771.44 1262.63 1753.92 1262.66L1628.93 1262.94C1528.53 1263.05 1474.67 1262.83 1474.67 1262.03C1474.67 1261.47 1491.07 1213.18 1511.2 1154.94C1531.33 1096.59 1553.33 1032.81 1560 1013.25C1566.8 993.687 1572.53 977.29 1572.93 976.724C1573.2 976.272 1642.8 975.933 1727.6 975.933H1878.41C1880 975.933 1881.13 977.468 1880.67 978.986V978.986ZM647.733 1332.03C650.933 1333.39 655.333 1335.88 657.467 1337.46C661.067 1340.29 668 1350.47 668 1353.07C668 1353.86 658.163 1356.47 652.098 1357.61C649.027 1358.19 646.636 1356.7 645.333 1353.86V1353.86C640.133 1342.78 618.8 1340.85 608.4 1350.47C600.667 1357.59 598.933 1380.88 605.6 1391.85C610.8 1400.67 624.8 1404.86 634.533 1400.56C639.6 1398.41 644.8 1393.1 646.667 1388.12C647.6 1385.75 648.933 1384.28 649.867 1384.5C650.8 1384.84 655.2 1385.97 659.733 1386.99C664.4 1388.12 668 1389.59 668 1390.38C668 1393.78 662.4 1402.48 657.333 1407.23C649.2 1414.7 640.667 1417.52 626 1417.52C615.733 1417.52 612.933 1417.07 606.4 1414.47C586.4 1406.55 576.8 1388.57 580.133 1365.28C582.8 1347.3 593.6 1335.2 611.333 1330.22C619.867 1327.85 640.667 1328.87 647.733 1332.03ZM753.467 1332.48C772 1340.17 781.067 1355.44 779.6 1376.7C778.4 1395.36 770.4 1406.78 753.6 1413.79C745.333 1417.3 743.733 1417.52 731.333 1417.52C721.867 1417.52 716 1416.96 711.067 1415.49C701.333 1412.55 691.733 1404.97 686.533 1395.92C682.667 1389.25 682.133 1387.22 681.6 1376.36C681.2 1367.09 681.6 1362.68 683.2 1357.7C687.067 1346.39 694.933 1337.91 706 1333.05C714.667 1329.21 717.333 1328.87 732 1329.09C744.267 1329.32 746.933 1329.77 753.467 1332.48ZM952.4 1331.01C963.467 1334.52 972 1343.91 972 1352.61V1352.61C972 1354.42 970.532 1355.89 968.721 1355.89H961.467H954.879C952.603 1355.89 950.583 1354.43 949.867 1352.27V1352.27C949.067 1350.01 946.667 1347.53 944 1345.94C935.333 1340.97 917.467 1344.36 916.267 1351.14C915.6 1354.76 920.267 1357.82 930.267 1360.3C954 1366.07 958.4 1367.43 963.2 1370.37C970.533 1374.67 974.933 1382.24 974.933 1390.61C974.933 1398.64 972.533 1403.84 966.533 1408.93C958.267 1415.83 952 1417.52 934.667 1417.52C917.2 1417.41 912.933 1416.39 904 1409.38C898 1404.86 894.267 1398.98 892.8 1391.74C892 1388.12 892.267 1387.56 894.4 1387.56C895.867 1387.56 900.533 1387.22 904.933 1386.88L908.126 1386.6C910.883 1386.36 913.456 1388.01 914.4 1390.61V1390.61C915.2 1392.98 917.733 1396.49 920 1398.3C923.6 1401.13 925.333 1401.69 933.2 1402.03C946.933 1402.71 953.333 1399.2 953.333 1390.84C953.333 1385.63 950 1383.82 934.4 1380.32C911.067 1375 903.467 1371.16 898.533 1362.11C891.333 1349 900.133 1334.29 917.467 1330.11C925.867 1328.07 944.533 1328.53 952.4 1331.01ZM1317.6 1330.79C1338.13 1337.12 1348.67 1351.82 1348.4 1373.99C1348.27 1390.84 1342.67 1401.81 1329.87 1409.95C1315.87 1419.11 1292.13 1420.69 1275.47 1413.68C1261.47 1407.8 1252.93 1397.17 1250.4 1381.9C1246.13 1357.82 1258.27 1337.35 1280.67 1330.79C1289.6 1328.19 1309.07 1328.19 1317.6 1330.79ZM1612.67 1330C1623.47 1332.26 1633.73 1342.21 1634.8 1351.37V1351.37C1635.09 1353.49 1633.48 1355.39 1631.34 1355.45L1624.4 1355.67C1615.33 1355.89 1613.33 1355.67 1613.33 1354.31C1613.33 1347.53 1604.93 1342.89 1594 1343.68C1584.53 1344.36 1580 1346.96 1580 1351.71C1580 1356.46 1583.33 1358.15 1600.53 1362.11C1607.87 1363.7 1616.67 1366.07 1620.27 1367.43C1644 1376.02 1644.4 1404.07 1621.07 1414.02C1615.07 1416.51 1610.93 1417.3 1602 1417.86C1576 1419.22 1559.6 1409.83 1555.6 1391.18C1554.8 1387.78 1554.93 1387.56 1558.4 1387.56C1560.4 1387.56 1565.07 1387.22 1568.8 1386.88L1570.8 1386.67C1573.54 1386.4 1576.13 1388.02 1577.07 1390.61V1390.61C1577.87 1392.98 1580.4 1396.49 1582.67 1398.3C1586.27 1401.24 1587.87 1401.69 1596.4 1402.03C1604.27 1402.26 1606.8 1401.92 1610.4 1400.11C1618 1396.04 1619.07 1388.35 1612.67 1384.84C1610.93 1383.82 1602.67 1381.45 1594.4 1379.64C1572.4 1374.55 1564.27 1369.69 1560.13 1359.4C1555.33 1347.19 1564.67 1334.07 1581.33 1329.77C1586.4 1328.53 1606.13 1328.64 1612.67 1330ZM1746 1330.9C1756.27 1334.86 1761.47 1343 1759.47 1352.05C1758.4 1356.35 1751.33 1363.81 1745.33 1366.86V1366.86C1743.46 1367.77 1742.97 1370.22 1744.36 1371.77L1748.53 1376.47L1751.84 1380.27C1753.42 1382.08 1756.36 1381.55 1757.2 1379.3V1379.3V1379.3C1758.2 1376.44 1761.14 1374.74 1764.11 1375.31L1767.87 1376.02C1772.67 1376.93 1776.93 1377.83 1777.2 1378.06C1777.87 1378.62 1773.07 1390.16 1770.93 1392.98C1768.53 1396.04 1769.6 1397.39 1778.93 1402.48C1782.4 1404.41 1784.93 1406.33 1784.4 1406.67C1783.73 1407.01 1781.07 1409.72 1778.27 1412.66C1775.47 1415.71 1772.4 1418.09 1771.47 1418.09C1770.53 1418.09 1766.4 1416.05 1762.27 1413.57C1757.87 1410.85 1754.53 1409.49 1754 1410.17C1753.47 1410.85 1750 1412.77 1746.27 1414.47C1740 1417.18 1738 1417.52 1726 1417.52C1714.93 1417.41 1711.73 1417.07 1707.2 1415.04C1701.2 1412.32 1693.87 1405.88 1691.87 1401.47C1689.87 1397.06 1690.4 1386.54 1692.93 1382.13C1695.47 1377.61 1705.6 1368.78 1709.47 1367.77C1712.4 1366.98 1712.8 1364.6 1710.13 1362.79C1709.07 1362.11 1706.93 1358.83 1705.33 1355.67C1700.13 1345.26 1704.4 1335.43 1716 1331.13C1724 1328.07 1738.53 1327.96 1746 1330.9ZM2168.8 1332.48C2172.53 1334.07 2177.33 1337.12 2179.33 1339.16C2183.07 1342.78 2187.87 1350.8 2188 1353.18C2188 1354.2 2168.13 1358.95 2167.6 1358.04C2167.47 1357.82 2166.13 1355.55 2164.67 1353.07C2161.07 1347.07 2155.07 1344.25 2145.87 1344.36C2137.33 1344.36 2131.33 1346.96 2127.07 1352.27C2121.33 1359.51 2119.73 1373.99 2123.33 1385.63C2126 1394.23 2128.4 1397.17 2135.2 1400C2147.47 1404.97 2159.07 1401.47 2164.93 1391.06V1391.06C2167.31 1386.9 2171.37 1385.02 2176.04 1386.1C2176.79 1386.28 2177.59 1386.46 2178.4 1386.65C2189.33 1389.37 2189.6 1389.82 2184.8 1398.3C2177.6 1411.42 2160.53 1419.22 2142.13 1417.75C2115.33 1415.6 2100 1399.54 2100 1373.53C2100 1355.55 2106.4 1343.11 2119.6 1335.31C2128.8 1330 2134.93 1328.75 2149.33 1329.09C2159.87 1329.43 2163.07 1330 2168.8 1332.48ZM2455.6 1331.01C2477.6 1337.57 2490 1358.72 2485.6 1382.35C2481.73 1403.73 2465.87 1416.39 2441.47 1417.75C2424.13 1418.77 2411.47 1415.26 2401.33 1406.55C2390.27 1397.06 2385.07 1381.34 2387.87 1365.05C2390.67 1348.32 2401.6 1335.88 2417.47 1331.01C2427.47 1327.96 2445.33 1327.96 2455.6 1331.01ZM2755.07 1331.47C2762.8 1334.75 2769.07 1340.63 2771.33 1347.19C2774.4 1356.12 2774.67 1355.89 2762.67 1355.89C2753.6 1355.89 2751.73 1355.55 2751.2 1353.86C2748.13 1345.94 2742.27 1342.89 2731.33 1343.68C2722.27 1344.36 2717.33 1346.96 2717.33 1351.26C2717.33 1356.68 2718.93 1357.36 2745.33 1363.81C2758.4 1367.09 2764 1369.58 2769.07 1374.44C2782.13 1387.1 2776.13 1407.57 2757.07 1414.81C2751.07 1417.07 2747.87 1417.41 2735.33 1417.52C2722.67 1417.52 2719.73 1417.18 2713.6 1414.81C2705.33 1411.64 2698.27 1405.2 2695.47 1397.96C2691.6 1388.57 2692 1388.01 2702.67 1387.1C2712.53 1386.2 2714.67 1386.65 2714.67 1389.37C2714.67 1392.53 2718.8 1397.85 2723.07 1400C2728.93 1403.05 2741.73 1403.05 2747.73 1400C2755.47 1395.92 2756.8 1388.35 2750.27 1384.84C2748.67 1383.82 2741.33 1381.79 2734 1380.09C2715.47 1376.02 2706.93 1372.18 2701.87 1365.84C2690.93 1352.27 2697.73 1336.33 2717.07 1330.34C2724.27 1327.96 2748.4 1328.75 2755.07 1331.47ZM834.8 1356.12C845.2 1370.59 854.533 1383.26 855.467 1384.16C857.067 1385.52 857.333 1381.45 857.333 1357.82V1339.88C857.333 1334.36 861.81 1329.88 867.333 1329.88V1329.88V1329.88C872.846 1329.88 877.306 1334.37 877.272 1339.88L877.067 1373.08L876.765 1405.73C876.711 1411.63 871.907 1416.39 866 1416.39V1416.39V1416.39C859.3 1416.39 853.005 1413.18 849.073 1407.76L835.333 1388.8L831.728 1383.83C826.488 1376.6 815.061 1380.21 814.933 1389.14V1389.14L814.76 1407.33C814.709 1412.67 810.269 1416.92 804.933 1416.73V1416.73V1416.73C799.564 1416.54 795.294 1412.16 795.245 1406.79L794.933 1373.08L794.732 1340.42C794.696 1334.61 799.393 1329.88 805.2 1329.88V1329.88V1329.88C811.898 1329.88 818.189 1333.1 822.109 1338.53L834.8 1356.12ZM1013.33 1359.85C1013.33 1393.32 1013.87 1396.04 1021.6 1400C1029.87 1404.18 1045.73 1402.14 1049.73 1396.15C1050.8 1394.45 1051.47 1384.28 1051.73 1361.77L1052 1340.55C1052.07 1334.64 1056.89 1329.88 1062.8 1329.88V1329.88V1329.88C1068.62 1329.88 1073.33 1334.6 1073.33 1340.42V1359.51C1073.2 1401.13 1071.2 1407.46 1055.6 1414.47C1049.2 1417.3 1047.47 1417.52 1032.67 1417.52C1017.47 1417.52 1016.27 1417.41 1009.6 1414.13C1000.93 1410.06 995.067 1403.39 993.333 1395.36C992.533 1392.19 992 1376.14 992 1359.74V1340.55C992 1334.66 996.776 1329.88 1002.67 1329.88V1329.88V1329.88C1008.56 1329.88 1013.33 1334.66 1013.33 1340.55V1359.85ZM1244 1337.8V1337.8C1244 1342.09 1240.49 1345.55 1236.2 1345.48L1229.33 1345.38V1345.38C1221.27 1345.25 1214.67 1351.75 1214.67 1359.82V1381V1406.29C1214.67 1412.18 1209.89 1416.96 1204 1416.96V1416.96V1416.96C1198.11 1416.96 1193.33 1412.18 1193.33 1406.29V1381.34V1349.98C1193.33 1347.61 1191.44 1345.67 1189.07 1345.6V1345.6C1186.67 1345.6 1179.87 1345.49 1174 1345.38L1171.03 1345.31C1166.69 1345.22 1163.16 1341.8 1162.93 1337.46V1337.46V1337.46C1162.72 1333.34 1166 1329.88 1170.12 1329.88H1203.33H1236.08C1240.46 1329.88 1244 1333.43 1244 1337.8V1337.8ZM1432 1332.37C1448.27 1338.59 1453.2 1358.49 1441.2 1369.92C1439.07 1372.06 1434 1374.89 1430.13 1376.25L1429.96 1376.31C1426.97 1377.36 1426.31 1381.3 1428.8 1383.26V1383.26C1434.27 1387.56 1444.13 1399.2 1452.53 1411.53V1411.53C1454.11 1413.83 1452.47 1416.96 1449.68 1416.96H1443.73V1416.96C1435.81 1416.96 1428.32 1413.35 1423.39 1407.16L1418.13 1400.56C1404.13 1382.81 1401.33 1380.77 1391.33 1380.77V1380.77C1388.02 1380.77 1385.33 1383.46 1385.33 1386.77V1398.86V1406.29C1385.33 1412.18 1380.56 1416.96 1374.67 1416.96V1416.96V1416.96C1368.78 1416.96 1364 1412.18 1364 1406.29V1373.31V1361.39C1364 1343.94 1378.28 1329.86 1395.73 1330.11V1330.11C1420.93 1330.45 1428.27 1330.9 1432 1332.37ZM1542.4 1337.46V1337.46C1542.17 1341.79 1538.63 1345.19 1534.3 1345.25L1515.07 1345.49L1497.05 1345.64C1492.04 1345.68 1488 1349.75 1488 1354.76V1354.76V1354.76C1488 1359.76 1492.05 1363.81 1497.05 1363.81H1513.33H1531.32C1535.38 1363.81 1538.67 1367.1 1538.67 1371.16V1371.16V1371.16C1538.67 1375.22 1535.38 1378.51 1531.32 1378.51H1513.33H1499.31C1493.06 1378.51 1488 1383.57 1488 1389.82V1389.82V1389.82C1488 1396.06 1493.06 1401.13 1499.31 1401.13H1516H1536.08C1540.46 1401.13 1544 1404.67 1544 1409.04V1409.04V1409.04C1544 1413.41 1540.46 1416.96 1536.08 1416.96H1505.33V1416.96C1483.98 1416.96 1466.67 1399.65 1466.67 1378.29V1373.42V1367.88C1466.67 1346.9 1483.68 1329.88 1504.67 1329.88V1329.88H1535.21C1539.34 1329.88 1542.62 1333.34 1542.4 1337.46V1337.46ZM1912 1337.12C1912 1342.66 1911.47 1344.47 1909.87 1345.04C1908.67 1345.38 1896.4 1345.72 1882.53 1345.72H1866.38C1861.38 1345.72 1857.33 1349.77 1857.33 1354.76V1354.76V1354.76C1857.33 1359.76 1861.38 1363.81 1866.38 1363.81H1882.67H1900.65C1904.71 1363.81 1908 1367.1 1908 1371.16V1371.16V1371.16C1908 1375.22 1904.71 1378.51 1900.65 1378.51H1882.67H1868.64C1862.4 1378.51 1857.33 1383.57 1857.33 1389.82V1389.82V1389.82C1857.33 1396.06 1862.4 1401.13 1868.64 1401.13H1885.33H1905.42C1909.79 1401.13 1913.33 1404.67 1913.33 1409.04V1409.04V1409.04C1913.33 1413.41 1909.79 1416.96 1905.42 1416.96H1874.67V1416.96C1853.31 1416.96 1836 1399.65 1836 1378.29V1373.42V1367.88C1836 1346.9 1853.01 1329.88 1874 1329.88V1329.88H1904.76C1908.76 1329.88 1912 1333.12 1912 1337.12V1337.12ZM1988 1360.98C1988 1378.74 1987.33 1394.34 1986.53 1397.62C1983.47 1409.72 1973.07 1416.85 1957.2 1417.86C1936.53 1419.11 1922.67 1409.16 1922.67 1392.87C1922.67 1389.03 1922.93 1388.69 1926.53 1388.69C1928.53 1388.69 1933.07 1388.35 1936.53 1388.01C1942.4 1387.22 1942.67 1387.33 1942.67 1390.16C1942.67 1393.89 1944.53 1398.07 1947.33 1400.34C1949.73 1402.48 1957.47 1402.82 1961.33 1401.13C1965.73 1399.09 1966.67 1392.53 1966.67 1360.64V1340.55C1966.67 1334.66 1971.44 1329.88 1977.33 1329.88V1329.88V1329.88C1983.22 1329.88 1988 1334.66 1988 1340.55V1360.98ZM2085.07 1337.46V1337.46C2084.84 1341.79 2081.3 1345.19 2076.97 1345.25L2057.73 1345.49L2039.71 1345.64C2034.7 1345.68 2030.67 1349.75 2030.67 1354.76V1354.76V1354.76C2030.67 1359.76 2034.72 1363.81 2039.71 1363.81H2056H2073.98C2078.04 1363.81 2081.33 1367.1 2081.33 1371.16V1371.16V1371.16C2081.33 1375.22 2078.04 1378.51 2073.98 1378.51H2056H2041.98C2035.73 1378.51 2030.67 1383.57 2030.67 1389.82V1389.82V1389.82C2030.67 1396.06 2035.73 1401.13 2041.98 1401.13H2058.67H2078.75C2083.12 1401.13 2086.67 1404.67 2086.67 1409.04V1409.04V1409.04C2086.67 1413.41 2083.12 1416.96 2078.75 1416.96H2048V1416.96C2026.65 1416.96 2009.33 1399.65 2009.33 1378.29V1373.42V1367.88C2009.33 1346.9 2026.35 1329.88 2047.33 1329.88V1329.88H2077.88C2082 1329.88 2085.28 1333.34 2085.07 1337.46V1337.46ZM2226.8 1359.51C2226.8 1379.53 2227.33 1390.5 2228.4 1393.1C2230.8 1398.86 2235.87 1401.47 2245.73 1402.03C2256.27 1402.48 2261.87 1399.88 2263.87 1393.55C2264.67 1391.06 2265.33 1376.93 2265.33 1359.51V1340.68C2265.33 1334.72 2270.17 1329.88 2276.13 1329.88V1329.88V1329.88C2282 1329.88 2286.74 1334.68 2286.67 1340.55L2286.4 1363.47C2286 1396.83 2286 1397.28 2282.67 1402.82C2276 1414.13 2262.93 1418.88 2241.87 1417.75C2229.33 1417.18 2221.33 1414.47 2215.07 1408.93C2206.53 1401.24 2206.13 1399.54 2205.6 1362.9L2205.24 1340.68C2205.15 1334.75 2209.93 1329.88 2215.87 1329.88V1329.88V1329.88C2221.84 1329.88 2226.69 1334.71 2226.72 1340.68L2226.8 1359.51ZM2381.33 1337.8V1337.8C2381.33 1342.17 2377.79 1345.72 2373.42 1345.72H2366.67V1345.72C2358.57 1345.72 2352 1352.28 2352 1360.38V1381.34V1406.29C2352 1412.18 2347.22 1416.96 2341.33 1416.96V1416.96V1416.96C2335.44 1416.96 2330.67 1412.18 2330.67 1406.29V1381.34V1360.77C2330.67 1352.46 2324.03 1345.68 2315.73 1345.49V1345.49L2308.36 1345.32C2304.02 1345.23 2300.49 1341.8 2300.27 1337.46V1337.46V1337.46C2300.05 1333.34 2303.33 1329.88 2307.45 1329.88H2340.67H2373.42C2377.79 1329.88 2381.33 1333.43 2381.33 1337.8V1337.8ZM2564 1331.13C2586 1335.09 2592.8 1359.74 2575.47 1372.63C2572.8 1374.55 2570 1376.25 2569.33 1376.25C2568.67 1376.25 2566.53 1376.7 2564.67 1377.38V1377.38C2563.14 1377.88 2562.75 1379.85 2563.96 1380.9L2567.87 1384.28C2573.2 1388.8 2593.33 1414.36 2593.33 1416.39C2593.33 1416.73 2587.73 1416.96 2581.07 1416.96V1416.96C2573.22 1416.89 2565.83 1413.28 2560.95 1407.14L2556 1400.9C2548.67 1391.63 2541.73 1384.05 2539.33 1382.92C2536.93 1381.56 2532.8 1380.77 2529.07 1380.77V1380.77C2525.53 1380.77 2522.67 1383.64 2522.67 1387.17V1398.86V1406.29C2522.67 1412.18 2517.89 1416.96 2512 1416.96V1416.96V1416.96C2506.11 1416.96 2501.33 1412.18 2501.33 1406.29V1373.42V1357.88C2501.33 1342.42 2513.87 1329.88 2529.33 1329.88V1329.88C2544.67 1329.88 2560.27 1330.45 2564 1331.13ZM2680 1337.12C2680 1342.66 2679.47 1344.47 2677.87 1345.04C2676.67 1345.38 2664.4 1345.72 2650.53 1345.72H2634.38C2629.38 1345.72 2625.33 1349.77 2625.33 1354.76V1354.76V1354.76C2625.33 1359.76 2629.38 1363.81 2634.38 1363.81H2650.67H2668.65C2672.71 1363.81 2676 1367.1 2676 1371.16V1371.16V1371.16C2676 1375.22 2672.71 1378.51 2668.65 1378.51H2650.67H2636.64C2630.4 1378.51 2625.33 1383.57 2625.33 1389.82V1389.82V1389.82C2625.33 1396.06 2630.4 1401.13 2636.64 1401.13H2653.33H2673.42C2677.79 1401.13 2681.33 1404.67 2681.33 1409.04V1409.04V1409.04C2681.33 1413.41 2677.79 1416.96 2673.42 1416.96H2642.67V1416.96C2621.31 1416.96 2604 1399.65 2604 1378.29V1373.42V1367.88C2604 1346.9 2621.01 1329.88 2642 1329.88V1329.88H2672.76C2676.76 1329.88 2680 1333.12 2680 1337.12V1337.12ZM1116 1366.07V1375.79C1116 1389.78 1127.34 1401.13 1141.33 1401.13V1401.13H1158.75C1163.12 1401.13 1166.67 1404.67 1166.67 1409.04V1409.04V1409.04C1166.67 1413.41 1163.12 1416.96 1158.75 1416.96H1130.67V1416.96C1110.78 1416.96 1094.67 1400.84 1094.67 1380.96V1373.99V1341.68C1094.67 1335.79 1099.44 1331.01 1105.33 1331.01V1331.01V1331.01C1111.22 1331.01 1116 1335.79 1116 1341.68V1366.07ZM1540 1503.24C1581.33 1557.52 1644.8 1632.16 1693.2 1683.27C1800.8 1796.92 1890 1863.41 1957.07 1879.7C1971.87 1883.31 1996.13 1883.31 2006.93 1879.58C2023.33 1874.15 2037.73 1861.94 2046.53 1846.22C2050.13 1839.66 2056.53 1824.17 2057.6 1819.31C2057.87 1818.29 2049.33 1808.91 2037.07 1796.58C1964.27 1724.43 1889.47 1641.43 1818.53 1554.35C1796 1526.76 1766.67 1489.67 1766.67 1488.77C1766.67 1488.43 1802.67 1488.31 1846.8 1488.43L1891.76 1488.62C1913.9 1488.71 1934.69 1499.24 1947.87 1517.04V1517.04C2113.07 1740.49 2272 1910.34 2398.67 1998.89C2448.27 2033.6 2496 2055.99 2534.4 2062.55C2544.4 2064.36 2565.87 2064.02 2575.73 2062.1C2658.27 2045.59 2678.27 1920.52 2629.2 1727.15C2612.67 1661.78 2586.53 1583.19 2557.47 1512.06C2552.27 1499.4 2548 1488.88 2548 1488.65C2548 1488.43 2552.8 1488.2 2558.53 1488.2C2567.33 1488.2 2569.2 1488.54 2570 1490.12C2574.4 1499.51 2594.4 1549.27 2604.13 1575.28C2649.33 1696.16 2674.93 1799.29 2681.47 1886.59C2683.33 1911.02 2682.27 1956.71 2679.47 1975.82C2668.4 2051.13 2633.87 2095.69 2576.67 2108.58C2569.07 2110.39 2562.53 2110.73 2541.33 2110.73C2517.6 2110.61 2514 2110.39 2499.33 2107.45C2428.4 2093.31 2348.53 2053.05 2252 1982.83C2202.8 1947.09 2140.53 1894.96 2088.4 1846.22L2082.73 1840.88C2080.97 1839.21 2078.08 1839.96 2077.33 1842.27V1842.27C2072.27 1859.68 2062.27 1878.11 2051.6 1889.99C2039.2 1903.78 2021.47 1913.96 2001.33 1918.71C1989.2 1921.54 1958.27 1921.54 1942.67 1918.71C1888 1908.87 1822.13 1876.76 1747.6 1823.83C1721.87 1805.51 1708.27 1794.88 1673.47 1765.82C1603.47 1707.36 1535.33 1640.3 1463.07 1558.88C1440 1532.87 1416 1504.94 1406.8 1493.52V1493.52C1405.08 1491.38 1406.61 1488.2 1409.35 1488.2H1465.6L1509.92 1488.28C1521.73 1488.3 1532.86 1493.83 1540 1503.24V1503.24Z" fill="black"/>
<path d="M725.333 1176.33C714 1178.47 707.867 1184.73 704.533 1197.93C702.133 1207.4 702.8 1220.2 706.133 1228.2C713.467 1245.67 735.467 1249.93 749.6 1236.6C759.733 1227.27 760.933 1198.33 751.733 1185.27C746.933 1178.47 735.2 1174.47 725.333 1176.33Z" fill="black"/>
<path d="M1292.8 1176.47C1278.4 1179.8 1272 1190.33 1272 1210.6C1272 1231.67 1282.4 1244.33 1299.6 1244.33C1316.53 1244.33 1326.67 1231.4 1326.67 1209.53C1326.67 1193.93 1321.33 1182.87 1311.33 1178.07C1307.07 1175.93 1298.4 1175.27 1292.8 1176.47Z" fill="black"/>
<path d="M1724.8 1174.47C1723.6 1175.53 1722.67 1177.53 1722.67 1178.87C1722.67 1181.4 1730 1192.33 1731.73 1192.33C1732.27 1192.33 1734.67 1190.6 1737.07 1188.47C1742 1183.93 1742.93 1177.13 1739.07 1174.2C1735.73 1171.8 1727.33 1171.93 1724.8 1174.47Z" fill="black"/>
<path d="M1718.27 1219C1709.73 1226.33 1708.93 1238.33 1716.4 1243.67C1721.87 1247.53 1736.8 1245.13 1741.2 1239.8C1742.13 1238.6 1740.27 1235.4 1734.53 1228.33C1722.4 1213.4 1723.73 1214.2 1718.27 1219Z" fill="black"/>
<path d="M2428.93 1176.87C2421.6 1178.87 2416.93 1182.73 2412.93 1190.33C2410.53 1194.73 2410 1197.93 2410 1209.67C2410 1222.6 2410.27 1224.2 2413.87 1230.47C2425.47 1251.67 2456 1247.67 2462.67 1224.2C2464.67 1217.27 2464.27 1200.2 2461.87 1193.27C2457.2 1179.67 2443.87 1173 2428.93 1176.87Z" fill="black"/>
<path d="M1385.33 1189.67V1201.67H1399.87C1421.2 1201.67 1425.33 1199.53 1425.33 1188.47C1425.33 1184.33 1424.53 1182.6 1421.87 1180.47C1418.67 1177.93 1416.53 1177.67 1401.87 1177.67H1385.33V1189.67Z" fill="black"/>
<path d="M2522.67 1189.67V1201.67H2537.87C2546.27 1201.67 2554.67 1201.13 2556.53 1200.33C2563.33 1197.8 2565.33 1186.6 2559.87 1180.87C2556.93 1177.8 2556.13 1177.67 2539.73 1177.67H2522.67V1189.67Z" fill="black"/>
</svg>
