<svg width="481" height="330" viewBox="0 0 481 330" fill="none" xmlns="http://www.w3.org/2000/svg">
<path d="M440.866 216.907L404.167 225.16L414.841 228.892L440.866 216.907Z" fill="#92DBDB"/>
<path d="M440.865 216.907L426.678 229.516L418.465 227.42L440.865 216.907Z" fill="#BDFBFF"/>
<path d="M412.564 223.346L413.072 219.274L440.866 216.908L412.564 223.346Z" fill="#00ADAB"/>
<path d="M110.316 258.944L110.089 259.945C113.374 260.34 116.676 260.629 119.904 260.806L119.961 259.79C116.791 259.616 113.545 259.331 110.316 258.944ZM139.22 259.524C136.038 259.789 132.811 259.945 129.63 259.989L129.748 261.009C132.99 260.964 136.276 260.805 139.516 260.535L139.22 259.524ZM91.4485 255.57L90.9467 256.523C94.1259 257.27 97.312 257.933 100.415 258.491L100.79 257.512C97.7299 256.961 94.5876 256.308 91.4485 255.57ZM157.825 256.776C154.662 257.434 151.657 257.974 148.639 258.426L149.094 259.418C152.156 258.96 155.203 258.413 158.412 257.745L157.825 256.776ZM73.4199 250.467L72.7216 251.365C75.7451 252.359 78.7696 253.286 81.7115 254.123L82.3213 253.199C79.4085 252.37 76.4143 251.452 73.4199 250.467ZM175.543 252.318C172.296 253.241 169.428 254.018 166.777 254.693L167.455 255.641C170.128 254.961 173.013 254.178 176.279 253.25L175.543 252.318ZM56.273 244.16L55.4371 245.008C58.303 246.168 61.1726 247.279 63.9677 248.31L64.7396 247.438C61.9662 246.415 59.1171 245.312 56.273 244.16ZM192.907 247.276C190.097 248.067 187.307 248.885 184.211 249.795L184.965 250.722C188.054 249.814 190.839 248.997 193.638 248.21L192.907 247.276ZM297.049 250.714L296.92 251.725C300.156 251.991 303.45 252.186 306.741 252.306L306.753 251.287C303.5 251.169 300.246 250.977 297.049 250.714ZM39.916 237.013L38.9852 237.819C41.7145 239.095 44.4506 240.334 47.1155 241.5L48.0031 240.675C45.3526 239.514 42.6309 238.283 39.916 237.013ZM326.136 251.145C322.909 251.306 319.656 251.401 316.463 251.425L316.567 252.445C319.796 252.42 323.087 252.324 326.347 252.161L326.136 251.145ZM277.877 248.223L277.504 249.203C280.677 249.772 283.925 250.273 287.154 250.692L287.406 249.694C284.216 249.279 281.01 248.785 277.877 248.223ZM210.887 242.931C207.982 243.478 205 244.13 201.767 244.925L202.429 245.876C205.622 245.092 208.566 244.449 211.429 243.909L210.887 242.931ZM345.215 249.421C342.059 249.831 338.868 250.184 335.731 250.469L336.045 251.478C339.214 251.19 342.438 250.834 345.624 250.42L345.215 249.421ZM259.295 244.008L258.785 244.96C259.819 245.206 260.874 245.472 261.92 245.749C263.933 246.283 265.986 246.793 268.026 247.263L268.519 246.307C266.505 245.843 264.476 245.341 262.488 244.813C261.424 244.531 260.35 244.26 259.295 244.008ZM230.082 240.821C226.886 240.902 223.608 241.13 220.336 241.499L220.704 242.503C223.904 242.143 227.109 241.919 230.23 241.841L230.082 240.821ZM239.952 241.025L239.863 242.039C243.018 242.25 246.24 242.609 249.439 243.109L249.756 242.12C246.482 241.608 243.184 241.241 239.952 241.025ZM363.751 246.309C360.701 246.936 357.609 247.514 354.562 248.027L355.06 249.013C358.134 248.496 361.253 247.912 364.33 247.281L363.751 246.309ZM381.587 241.994C378.675 242.806 375.706 243.579 372.764 244.292L373.419 245.246C376.385 244.527 379.378 243.748 382.312 242.929L381.587 241.994ZM398.606 236.607C395.869 237.582 393.043 238.531 390.207 239.428L391 240.343C393.86 239.439 396.707 238.482 399.466 237.5L398.606 236.607ZM414.576 230.147C414.549 230.16 411.749 231.524 406.759 233.527L407.687 234.393C412.743 232.365 415.591 230.976 415.62 230.963L414.576 230.147Z" fill="#00ADAB"/>
<path d="M32.5 102.834L77.2227 86.3919L61.6646 86.2818L32.5 102.834Z" fill="#92DBDB"/>
<path d="M32.5 102.834L45.9892 89.1986L57.6582 88.6413L32.5 102.834Z" fill="#BDF3FF"/>
<path d="M67.0382 90.0139L68.0562 93.4083L32.5 102.834L67.0382 90.0139Z" fill="#5DCCCB"/>
<path d="M143.264 57.9137L143.038 56.4504C146.405 56.0217 149.789 55.7461 153.095 55.6312L153.146 57.1079C149.899 57.2209 146.573 57.4923 143.264 57.9137ZM172.867 58.3362C169.61 57.8123 166.307 57.4447 163.049 57.2416L163.178 55.767C166.497 55.9737 169.861 56.3482 173.177 56.8814L172.867 58.3362ZM123.918 61.9838L123.411 60.5786C126.672 59.6341 129.94 58.812 133.121 58.1374L133.498 59.5746C130.36 60.24 127.138 61.0506 123.918 61.9838ZM191.898 63.1368C188.664 62.0429 185.591 61.1288 182.503 60.3411L182.977 58.9211C186.109 59.7197 189.225 60.6469 192.506 61.756L191.898 63.1368ZM105.418 68.6001L104.709 67.266C107.813 65.9567 110.917 64.7432 113.936 63.6573L114.553 65.0255C111.564 66.1005 108.491 67.3018 105.418 68.6001ZM210.008 70.3799C206.691 68.8988 203.759 67.6459 201.049 66.5497L201.751 65.2038C204.483 66.3083 207.432 67.5694 210.769 69.0588L210.008 70.3799ZM87.8119 77.0013L86.9622 75.7341C89.9056 74.1771 92.8524 72.6901 95.7224 71.317L96.5063 72.6154C93.6587 73.9788 90.7329 75.4539 87.8119 77.0013ZM227.752 78.4546C224.881 77.1842 222.029 75.8754 218.866 74.4194L219.645 73.1066C222.801 74.5595 225.647 75.8663 228.507 77.1315L227.752 78.4546ZM334.422 78.02L334.298 76.5468C337.613 76.3024 340.988 76.1631 344.359 76.1341L344.364 77.6122C341.032 77.641 337.698 77.778 334.422 78.02ZM71.0086 86.6568L70.0614 85.4462C72.8658 83.7143 75.6769 82.0367 78.4146 80.4607L79.3173 81.6973C76.5945 83.265 73.7982 84.9332 71.0086 86.6568ZM364.212 78.666C360.908 78.2917 357.577 78.0119 354.308 77.8371L354.422 76.3619C357.728 76.5389 361.098 76.8219 364.435 77.2006L364.212 78.666ZM314.771 80.7954L314.397 79.3581C317.65 78.6712 320.979 78.0855 324.289 77.6184L324.54 79.0775C321.27 79.5399 317.983 80.1165 314.771 80.7954ZM246.131 85.5454C243.162 84.6246 240.112 83.5482 236.807 82.2538L237.492 80.9018C240.757 82.1796 243.766 83.2417 246.694 84.1493L246.131 85.5454ZM383.736 82.0015C380.507 81.2684 377.242 80.6178 374.031 80.0668L374.361 78.6158C377.604 79.1725 380.902 79.8298 384.162 80.5698L383.736 82.0015ZM295.711 86.0985L295.195 84.6957C296.256 84.3833 297.338 84.0433 298.412 83.687C300.477 83.0003 302.584 82.3512 304.676 81.7584L305.174 83.1661C303.108 83.7515 301.026 84.3919 298.987 85.0699C297.895 85.4336 296.793 85.7797 295.711 86.0985ZM265.772 89.4453C262.5 89.1893 259.145 88.7142 255.798 88.0361L256.182 86.5957C259.455 87.2583 262.736 87.7224 265.931 87.9731L265.772 89.4453ZM275.881 89.5814L275.798 88.1058C279.029 87.9387 282.331 87.5577 285.612 86.9725L285.929 88.4216C282.572 89.0205 279.192 89.4095 275.881 89.5814ZM402.694 87.327C399.576 86.284 396.413 85.3104 393.297 84.4333L393.814 83.0242C396.958 83.9093 400.148 84.8921 403.294 85.9431L402.694 87.327ZM420.926 94.369C417.95 93.063 414.915 91.8112 411.909 90.6488L412.586 89.2925C415.618 90.4653 418.677 91.7274 421.676 93.0438L420.926 94.369ZM438.314 102.929C435.519 101.395 432.632 99.8946 429.734 98.468L430.553 97.1751C433.475 98.6121 436.384 100.125 439.201 101.67L438.314 102.929ZM454.62 113.001C454.592 112.98 451.735 110.879 446.64 107.755L447.597 106.538C452.759 109.702 455.665 111.841 455.695 111.863L454.62 113.001Z" fill="#00ADAB"/>
</svg>
